<?xml version="1.0" standalone="no"?>
<!DOCTYPE svg PUBLIC "-//W3C//DTD SVG 1.1//EN" "http://www.w3.org/Graphics/SVG/1.1/DTD/svg11.dtd" >
<svg xmlns="http://www.w3.org/2000/svg">
<metadata>Generated by IcoMoon</metadata>
<defs>
<font id="hustle-icons-font" horiz-adv-x="1024">
<font-face units-per-em="1024" ascent="960" descent="-64" />
<missing-glyph horiz-adv-x="1024" />
<glyph unicode="&#x20;" horiz-adv-x="512" d="" />
<glyph unicode="&#xe900;" glyph-name="address" d="M314.833 882.947c31.768 25.685 66.577 44.948 104.428 57.79 37.175 12.842 75.026 19.263 113.552 19.263s76.377-6.421 113.552-19.263c37.851-12.842 72.66-32.105 104.428-57.79 31.092-25.009 56.776-54.41 77.053-88.206 19.601-33.12 32.95-68.435 40.048-105.949s7.604-75.532 1.521-114.059c-6.083-38.527-18.925-75.364-38.527-110.511l-298.075-528.222-298.075 528.222c-19.601 35.147-32.444 71.984-38.527 110.511s-5.576 76.546 1.521 114.059c7.097 37.513 20.446 72.829 40.048 105.949 20.277 33.796 45.962 63.197 77.053 88.206zM532.813 493.624c35.823 0 66.408 12.673 91.754 38.020s38.020 55.931 38.020 91.754c0 35.823-12.673 66.408-38.020 91.754s-55.931 38.020-91.754 38.020c-35.823 0-66.408-12.673-91.754-38.020s-38.020-55.931-38.020-91.754c0-35.823 12.673-66.408 38.020-91.754s55.931-38.020 91.754-38.020z" />
<glyph unicode="&#xe901;" glyph-name="email" d="M0 576l512-192 512 192v-384c0-35.334-12.5-65.5-37.5-90.5s-55.166-37.5-90.5-37.5h-768c-35.334 0-65.5 12.5-90.5 37.5s-37.5 55.166-37.5 90.5v384zM128 832h768c35.334 0 65.5-12.5 90.5-37.5s37.5-55.166 37.5-90.5v-32l-512-192-512 192v32c0 35.334 12.5 65.5 37.5 90.5s55.166 37.5 90.5 37.5z" />
<glyph unicode="&#xe902;" glyph-name="name" d="M982.673 133.776c21.429-35.059 33.674-76.785 36.735-125.182s4.592-72.594 4.592-72.594h-1024c0 0 1.531 24.198 4.592 72.594s15.306 90.504 36.735 126.325c22.194 35.059 53.955 58.685 95.283 70.879s75.001 22.483 101.022 30.867c25.256 9.146 56.251 26.103 92.987 50.873s55.103 37.154 55.103 37.154v53.731c-14.541 12.194-27.36 26.294-38.457 42.299s-19.707 33.534-25.83 52.588c-0.765 2.286-1.339 6.669-1.722 13.147s-0.574 10.86-0.574 13.147c-5.357 1.524-9.567 2.286-12.628 2.286s-8.036 8.383-14.924 25.151c-6.888 16.767-13.967 40.012-21.238 69.736s-7.079 48.777 0.574 57.161c1.531 1.524 3.444 2.858 5.74 4.001s4.975 1.715 8.036 1.715c2.296 0 4.209-0.191 5.74-0.572s3.061-1.334 4.592-2.858c-8.419 41.156-12.245 76.404-11.48 105.747s5.74 55.065 14.924 77.167c0 0 8.992 12.004 26.978 36.011s46.493 36.011 85.525 36.011c6.123 19.054 13.776 32.772 22.96 41.156s40.944 9.908 95.283 4.573c48.215-4.573 94.326-21.911 138.332-52.016s67.54-71.832 70.601-125.182c0.765-4.573 1.148-8.955 1.148-13.147s0-8.574 0-13.147c0-17.529-0.957-34.677-2.87-51.445s-4.783-32.391-8.61-46.872c1.531 0.762 3.253 1.524 5.166 2.286s3.635 1.143 5.166 1.143c3.061 0 5.74-0.572 8.036-1.715s4.592-2.858 6.888-5.144c6.888-8.384 6.697-27.246-0.574-56.589s-14.35-52.397-21.238-69.164c-5.357-15.243-9.758-23.436-13.202-24.579s-7.462-2.477-12.054-4.001c0-4.573-0.383-9.146-1.148-13.719s-1.531-8.765-2.296-12.575c-0.765-1.524-1.339-3.049-1.722-4.573s-0.957-3.049-1.722-4.573v-2.286c0-0.762-0.383-1.905-1.148-3.43s-1.531-3.049-2.296-4.573v-1.143c-0.765-1.524-1.531-3.239-2.296-5.144s-1.913-3.62-3.444-5.144v-1.143c-6.888-12.194-14.541-23.436-22.96-33.725s-17.602-20.006-27.552-29.152v-51.445c0 0 18.368-12.575 55.103-37.726s67.731-41.918 92.987-50.301c25.256-8.384 58.738-18.672 100.448-30.867s73.279-36.202 94.709-72.022z" />
<glyph unicode="&#xe903;" glyph-name="number" d="M640 384h384l-192-192-192 192zM832 704l192-192h-384l192 192zM250 128c-54.667 0-102.833 8-144.5 24s-76.833 38.333-105.5 67l87 114c21.333-20 46-35.333 74-46s57-16 87-16c34 0 59.333 7.333 76 22s25 31.667 25 51c0 21.333-8 38.667-24 52s-40 20-72 20c-24.667 0-47-3.667-67-11s-38.667-19.333-56-36l-110 28v371h449v-141h-290v-122c15.333 14.667 34.5 26.667 57.5 36s48.167 14 75.5 14c26.667 0 52-4.667 76-14s45.167-22.833 63.5-40.5c18.333-17.667 33.167-39.167 44.5-64.5 10.667-25.333 16-54 16-86 0-33.333-6-64-18-92-12.667-27.333-30.333-50.667-53-70s-50-34-82-44c-32.667-10.667-69-16-109-16z" />
<glyph unicode="&#xe904;" glyph-name="phone" d="M64 656.959c0 3.555 0.178 6.932 0.533 10.132s0.533 6.577 0.533 10.132c1.422 18.486 4.088 36.794 7.999 54.925s9.421 35.728 16.531 52.792c5.688 13.509 12.087 26.485 19.197 38.928s14.931 24.352 23.463 35.728c6.399 7.821 12.976 15.287 19.73 22.397s13.687 13.865 20.797 20.264c6.399 5.688 12.62 11.376 18.664 17.064s12.265 11.376 18.664 17.064c4.266 3.555 8.532 6.932 12.798 10.132s8.888 5.866 13.865 7.999c9.243 4.266 18.131 6.044 26.663 5.333s17.064-3.555 25.596-8.532c8.532-4.977 15.998-11.021 22.397-18.131s12.798-14.576 19.197-22.397c7.821-10.665 15.109-21.863 21.863-33.595s13.331-23.285 19.73-34.662l14.931-25.596c4.977-8.532 9.243-17.064 12.798-25.596 4.266-9.243 7.821-18.664 10.665-28.262s4.977-19.375 6.399-29.329c1.422-14.22 0.356-27.551-3.2-39.994s-9.954-23.996-19.197-34.662c-4.977-5.688-10.31-11.198-15.998-16.531s-11.376-10.843-17.064-16.531c-4.977-4.977-10.487-9.776-16.531-14.398s-11.909-9.065-17.597-13.331c-7.11-5.688-13.331-12.087-18.664-19.197s-9.065-15.287-11.198-24.53c-2.133-7.821-3.022-15.642-2.666-23.463s1.244-15.642 2.666-23.463c2.133-10.665 5.333-20.975 9.599-30.929s8.888-19.553 13.865-28.796c8.532-17.064 17.953-33.239 28.262-48.526s21.152-30.040 32.528-44.26c10.665-14.22 21.686-27.907 33.062-41.061s23.108-26.129 35.195-38.928c10.665-10.665 21.508-20.619 32.528-29.862s22.574-17.775 34.662-25.596c7.11-4.266 14.576-7.999 22.397-11.198s15.642-5.51 23.463-6.932c11.376-1.422 21.686-0.533 30.929 2.666s18.131 8.354 26.663 15.464c1.422 2.133 3.022 3.911 4.799 5.333s3.377 3.2 4.799 5.333c5.688 7.821 12.265 15.109 19.73 21.863s14.753 13.331 21.863 19.73c4.266 4.266 8.532 8.177 12.798 11.732s8.532 6.755 12.798 9.599c12.087 7.821 24.174 12.265 36.261 13.331s24.53-0.889 37.328-5.866c10.665-2.844 20.619-7.11 29.862-12.798s18.131-12.443 26.663-20.264c9.954-8.532 20.086-17.42 30.395-26.663s20.441-18.486 30.395-27.729c7.11-6.399 13.865-12.976 20.264-19.73s12.798-14.042 19.197-21.863c4.977-7.11 9.421-14.22 13.331-21.33s6.577-14.931 7.999-23.463c0.711-1.422 1.244-2.844 1.6-4.266s0.533-2.844 0.533-4.266v-10.665c0-0.711-0.178-1.6-0.533-2.666s-0.533-1.955-0.533-2.666c-1.422-8.532-4.266-16.353-8.532-23.463s-9.243-13.509-14.931-19.197c-5.688-5.688-11.554-11.198-17.597-16.531s-11.909-10.843-17.597-16.531c-12.087-13.509-25.241-25.418-39.461-35.728s-29.151-19.375-44.793-27.196c-15.642-7.11-31.817-12.976-48.526-17.597s-33.595-7.643-50.659-9.065c-2.844 0-5.688-0.178-8.532-0.533s-5.688-0.533-8.532-0.533h-18.131c-4.266 0.711-8.532 1.244-12.798 1.6s-8.532 0.533-12.798 0.533c-15.642 2.133-30.929 5.333-45.86 9.599s-29.862 9.243-44.793 14.931c-23.463 9.243-45.86 20.441-67.19 33.595s-41.949 27.551-61.857 43.194c-17.064 13.509-33.595 27.551-49.593 42.127s-31.817 30.040-47.46 46.393c-17.775 18.486-34.839 37.505-51.192 57.058s-32.351 39.638-47.993 60.258c-15.642 20.619-30.395 41.416-44.26 62.391s-27.196 42.482-39.994 64.524c-14.931 26.307-28.262 53.325-39.994 81.055s-21.152 56.525-28.262 86.387c-3.555 14.22-6.577 28.262-9.065 42.127s-4.088 27.551-4.799 41.061c0 3.555-0.178 6.932-0.533 10.132s-0.533 6.221-0.533 9.065v14.931z" />
<glyph unicode="&#xe905;" glyph-name="text" d="M599.998 49.48c-0.071-7.805-1.737-15.132-4.998-21.98-3.333-7-8-12.833-14-17.5-5.333-5.333-11.667-9.5-19-12.5s-15.333-4.5-24-4.5c-5.333 0-10.5 0.833-15.5 2.5s-9.833 3.833-14.5 6.5c-4.667 2.667-8.833 6.333-12.5 11s-6.5 9.667-8.5 15l-45 99h-283l-45-99c-2-5.333-4.833-10.167-8.5-14.5s-7.833-8.167-12.5-11.5c-4-2.667-8.5-4.833-13.5-6.5s-10.5-2.5-16.5-2.5c-8.667 0-16.667 1.667-24 5s-14 7.333-20 12c-6 4.667-10.667 10.5-14 17.5s-5 14.5-5 22.5c0 4.667 0.667 9.167 2 13.5s3 8.5 5 12.5l225 475c3.333 6 7.333 11.667 12 17s10 9.667 16 13c6 3.333 12.333 6 19 8s13.667 3 21 3c7.333 0 14.333-1 21-3s13-4.667 19-8c6-3.333 11.333-7.5 16-12.5s8.667-10.833 12-17.5l226-475c1.333-4 2.667-8.333 4-13 1.288-4.507 1.953-9.013 1.998-13.52zM203 226h195l-97 218-98-218zM980.498 373.499c29.001-29.34 43.502-73.839 43.502-133.499v-193c0-7.333-1.5-14.5-4.5-21.5s-6.833-13.167-11.5-18.5c-5.333-4.667-11.5-8.333-18.5-11s-14.5-4-22.5-4h-5c-8 0-15.5 1.5-22.5 4.5s-13.167 7.167-18.5 12.5c-5.333 5.333-9.5 11.5-12.5 18.5s-4.5 14.5-4.5 22.5v7c-4-10.667-9.5-20.167-16.5-28.5s-15.167-15.167-24.5-20.5c-9.333-6-19.5-10.5-30.5-13.5s-22.5-4.5-34.5-4.5h-5c-13.333 0-26.333 1.667-39 5s-24.667 7.667-36 13c-10.667 5.333-20.333 11.833-29 19.5s-16.333 16.167-23 25.5c-6.667 10-11.667 20.5-15 31.5s-5 22.833-5 35.5v7c0 12 2 23.667 6 35s9.667 21.333 17 30c10 9.333 21 17.333 33 24s25 11 39 13c19.333 4 39.5 7 60.5 9s42.5 3 64.5 3h37v15c0.667 0.667 1 1.667 1 3v3c0 8.667-1.5 16.833-4.5 24.5s-6.833 14.5-11.5 20.5c-6 5.333-12.833 9.333-20.5 12s-15.833 4-24.5 4h-7c-18.667-1.333-36.667-4.333-54-9s-34-10.333-50-17c-4-2-8.667-3.833-14-5.5s-11-2.833-17-3.5h-1c-6 0-11.333 1.167-16 3.5s-8.667 5.5-12 9.5c-3.333 4.667-6 9.667-8 15s-3 11-3 17v4c0 5.333 0.667 10.167 2 14.5s3.333 8.167 6 11.5c2.667 4 6 7.667 10 11s8.333 6.333 13 9c10.667 5.333 21.833 10.167 33.5 14.5s23.833 7.833 36.5 10.5c13.333 2.667 27.167 4.833 41.5 6.5s28.833 2.5 43.5 2.5c59.659 0 104.159-14.5 133.499-43.502v0zM881 102c6.667 8 12.167 17.167 16.5 27.5s6.5 21.167 6.5 32.5c0 0.667-0.167 1.333-0.5 2s-0.5 1.333-0.5 2v14h-14c-2 0-4.333 0.167-7 0.5s-5.333 0.5-8 0.5c-14 0-27.833-1-41.5-3s-27.167-5-40.5-9c-6.667-2.667-12.333-7.333-17-14s-7-14.333-7-23v-4c0-6.667 1.333-13 4-19s6.333-11.333 11-16c4.667-4.667 10.167-8.333 16.5-11s13.167-4 20.5-4h5c10.667 0 21 2.167 31 6.5s18.333 10.5 25 18.5v-1zM551 647c-9.333 24.667-23.5 46.5-42.5 65.5s-41.167 33.5-66.5 43.5l-54 19 55 21c25.333 9.333 47.5 23.667 66.5 43s33.167 41.667 42.5 67l20 54 20-56c9.333-24.667 23.667-46.5 43-65.5s41.667-33.5 67-43.5l53-20-55-19c-24.667-10-46.5-24.5-65.5-43.5s-33.167-41.167-42.5-66.5l-20-54-21 55zM876 537c-6.667 17.333-16.5 32.5-29.5 45.5s-28.167 22.833-45.5 29.5l-37 13 38 14c16.667 6.667 31.5 16.5 44.5 29.5s22.833 28.167 29.5 45.5l14 37 13-38c6.667-16.667 16.5-31.5 29.5-44.5s28.167-22.833 45.5-29.5l37-14-37-13c-17.333-6.667-32.5-16.5-45.5-29.5s-22.833-28.167-29.5-45.5l-13-37-14 37z" />
<glyph unicode="&#xe906;" glyph-name="website" d="M512 960c70.667 0 137-13.333 199-40 62.667-26.667 117.166-63.166 163.5-109.5s82.833-100.833 109.5-163.5c26.667-62 40-128.333 40-199s-13.333-137-40-199c-26.667-62.667-63.166-117.166-109.5-163.5s-100.833-82.833-163.5-109.5c-62-26.667-128.333-40-199-40s-137 13.333-199 40c-62.667 26.667-117.166 63.166-163.5 109.5s-82.833 100.833-109.5 163.5c-26.667 62-40 128.333-40 199s13.333 137 40 199c26.667 62.667 63.166 117.166 109.5 163.5s100.833 82.833 163.5 109.5c62 26.667 128.333 40 199 40zM926 495l-1 2c-4.667 39.334-14.333 76.666-29 112-14.667 34.667-33.667 66.833-57 96.5s-50.667 55.833-82 78.5c-30.667 22.667-64 40.667-100 54 19.333-17.333 37.333-38 54-62s31.167-50.667 43.5-80c12.333-29.333 22.5-61 30.5-95 7.333-34 12.333-69.333 15-106h126zM461 789h-1c-16.667-9.333-33-23-49-41-15.333-18-29.333-39.5-42-64.5s-23.333-53.5-32-85.5c-8.667-31.333-14.333-65.333-17-102h141v293zM460 400l-140-1c2.667-36.667 8.333-70.667 17-102s19.333-59.5 32-84.5c12.667-25 26.667-46.5 42-64.5 16-18 32.333-31.667 49-41v293zM556 103c17.333 8.667 34.333 21.667 51 39 16.667 18 31.667 39.667 45 65s24.667 54.333 34 87c9.333 32.667 15.333 68 18 106h-148v-297zM556 496l148-1c-2.667 38-8.667 73.333-18 106s-20.667 61.833-34 87.5c-13.333 25.667-28.333 47.167-45 64.5-16.667 18-33.667 31.333-51 40v-297zM367 838l-3-1c-35.334-13.333-68.333-31.333-99-54-30-22.667-56.667-48.667-80-78s-42.333-61.666-57-97c-15.333-35.334-25.333-73-30-113h126c2 36.667 7 72 15 106 8 33.334 18.167 64.667 30.5 94s26.833 56.333 43.5 81c16 24 34 44.667 54 62zM98 400l1-2c4.667-39.334 14.333-76.333 29-111 15.333-35.334 34.667-67.5 58-96.5s50.333-54.833 81-77.5c30.667-22.667 64-41 100-55-19.333 18-37.333 39-54 63s-31.167 50.5-43.5 79.5c-12.333 29-22.167 60.167-29.5 93.5-8 34-13.333 69.333-16 106h-126zM657 58l3 1c35.334 14 68.333 32 99 54 30 22.667 56.5 48.667 79.5 78s42.167 61.666 57.5 97c14.667 35.334 24.667 72.666 30 112h-126c-2.667-36.667-7.667-71.666-15-105-8-33.333-18.167-64.667-30.5-94s-26.833-56-43.5-80c-16.667-24-34.667-45-54-63z" />
<glyph unicode="&#xe907;" glyph-name="timepicker" d="M1005 772c6-6.667 10.667-14 14-22s5-16.667 5-26c0-8.667-1.667-17.167-5-25.5s-8-15.5-14-21.5c-6-6-13.167-10.667-21.5-14s-17.167-5-26.5-5c-8.667 0-17.167 1.667-25.5 5s-15.5 8-21.5 14l-100 101c-7.333 6-13.167 13.5-17.5 22.5s-6.5 18.5-6.5 28.5c0 18.667 6.667 34.5 20 47.5s29 19.5 47 19.5c10.667 0 20.5-2.167 29.5-6.5s16.5-10.167 22.5-17.5l100-100zM116 872c6.667 7.333 14.333 13.167 23 17.5s18.333 6.5 29 6.5c18 0 33.667-6.5 47-19.5s20-28.833 20-47.5c0-10-2.167-19.5-6.5-28.5s-10.167-16.5-17.5-22.5l-101-100c-6-4.667-12.667-8.333-20-11s-15-4-23-4c-18.667 0-34.5 6.5-47.5 19.5s-19.5 28.833-19.5 47.5c0 8 1.333 15.667 4 23s6.667 13.667 12 19l100 100zM508 672h-1c-41.334 0-80-7.833-116-23.5s-67.333-37.167-94-64.5c-27.333-26.667-48.833-58.166-64.5-94.5s-23.5-75.166-23.5-116.5c0-41.334 8-80 24-116 15.333-36.667 36.5-68.5 63.5-95.5s58.833-48.167 95.5-63.5c36-16 74.666-24 116-24s80.333 8 117 24c36 15.333 67.5 36.5 94.5 63.5s48.5 58.833 64.5 95.5c15.333 36 23 74.666 23 116s-7.667 80-23 116c-16 36.667-37.5 68.5-64.5 95.5s-58.5 48.167-94.5 63.5c-36.667 16-75.666 24-117 24zM508 799v1c29.333 0 58-3 86-9 28-5.333 54.667-13.5 80-24.5s49.333-24.167 72-39.5c22.667-15.333 43.667-32.667 63-52s36.667-40.333 52-63c15.333-22.667 28.5-46.833 39.5-72.5s19.5-52.167 25.5-79.5c5.333-28 8-56.667 8-86 0-59.334-11-114.666-33-166-22.667-52-53.166-97.166-91.5-135.5s-83.5-68.833-135.5-91.5c-52-22-107.333-33-166-33s-114 11-166 33c-51.334 22.667-96.333 53.166-135 91.5s-69 83.5-91 135.5c-22.667 51.334-34 106.666-34 166 0 58.667 11.333 113.666 34 165 22 52 52.333 97.166 91 135.5s83.666 68.833 135 91.5c52 22 107.333 33 166 33zM634 404l-1 1c1.333-4.667 2.5-9.833 3.5-15.5s1.5-11.167 1.5-16.5c-0.667-26.667-8.333-50.833-23-72.5s-34-37.5-58-47.5h-2c-7.333-2.667-15-4.833-23-6.5s-16.333-2.5-25-2.5c-8 0-16 0.833-24 2.5s-15.667 3.833-23 6.5h-1l-2 1-45-44-68 69 12 12 32 31c-2 4.667-3.667 9.667-5 15s-2.333 10.667-3 16c-0.667 2.667-1.167 5.667-1.5 9s-0.5 6.667-0.5 10v1c0 18 3.333 34.833 10 50.5s16 29.167 28 40.5c6 6 12.5 11.333 19.5 16s14.5 8.667 22.5 12h1v126h100v-126h2c14.667-6.667 27.833-15.833 39.5-27.5s20.833-25.167 27.5-40.5c0-0.667 0.167-1.333 0.5-2s0.5-1.333 0.5-2c0.667-2 1.5-4 2.5-6s1.833-4.333 2.5-7v-3zM542 340c4.667 4 8.333 9 11 15s4 12.333 4 19c0 6.667-1.333 13-4 19s-6.333 11.333-11 16c-4 4-9 7.333-15 10s-12.333 4-19 4c-14 0-25.667-4.833-35-14.5s-14-21.167-14-34.5c0-13.333 4.667-24.833 14-34.5s21-14.5 35-14.5c6.667 0 13 1.333 19 4s11 6.333 15 11z" />
<glyph unicode="&#xe908;" glyph-name="datepicker" d="M933.874 598c4.561 0 8.634-1.833 12.217-5.5s5.376-7.833 5.376-12.5v-626c0-5.333-1.792-9.667-5.376-13s-7.656-5-12.217-5h-852.281c-4.561 0-8.634 1.833-12.217 5.5s-5.376 7.833-5.376 12.5v626c0 4.667 1.792 8.833 5.376 12.5s7.656 5.5 12.217 5.5h852.281zM360.148 69l-0.977-1c46.915 0 84.218 10.667 111.911 32s41.539 50.333 41.539 87c0 25.333-7.167 44.833-21.502 58.5s-29.973 23.833-46.915 30.5c19.548 9.333 34.208 21.167 43.982 35.5s14.661 30.833 14.661 49.5c0 25.333-10.914 45.833-32.742 61.5s-50.661 23.5-86.499 23.5h-7.819c-16.941 0-33.394-1.667-49.358-5s-30.788-8-44.471-14c-1.303-0.667-2.443-1.667-3.421-3s-1.466-3-1.466-5v-1l7.819-61c0.652-2 1.303-3.5 1.955-4.5s1.629-1.833 2.932-2.5c0.652 0 1.303-0.167 1.955-0.5s1.303-0.5 1.955-0.5h1.955c0.652 0 0.977 0.333 0.977 1 10.426 5.333 21.34 9.5 32.742 12.5s23.294 4.5 35.675 4.5c19.548 0 30.951-3 34.209-9s4.887-11 4.887-15c0-7.333-3.421-14.667-10.263-22s-25.249-12-55.222-14c-1.955-0.667-3.747-1.833-5.376-3.5s-2.443-3.5-2.443-5.5v-61c0-2.667 0.814-4.833 2.443-6.5s3.747-2.5 6.353-2.5c33.883-2 55.711-6.667 65.485-14s14.661-17.667 14.661-31c0-10.667-4.887-19.333-14.661-26s-22.154-10-37.141-10h-2.932c-14.335 0-28.018 1.333-41.050 4s-25.086 6.333-36.163 11c-0.652 0.667-1.303 1-1.955 1h-3.91c-0.652 0-1.303-0.333-1.955-1-1.303-0.667-2.281-1.5-2.932-2.5s-1.303-2.167-1.955-3.5l-7.819-61v-2c0-1.333 0.489-2.833 1.466-4.5s1.792-2.5 2.443-2.5c13.683-6 28.018-10.333 43.005-13s30.299-4 45.937-4zM731.555 82v350c0 2-0.814 4-2.443 6s-3.747 3-6.353 3h-36.163c-0.652 0-1.303-0.167-1.955-0.5s-1.303-0.5-1.955-0.5l-104.58-53c-1.303-0.667-2.443-1.667-3.421-3s-1.466-3-1.466-5v-1l8.796-62c0-1.333 0.326-2.5 0.977-3.5s1.629-1.833 2.932-2.5c0.652 0 1.303-0.167 1.955-0.5s1.303-0.5 1.955-0.5c0.652 0 1.303 0.167 1.955 0.5s1.303 0.5 1.955 0.5l47.892 19v-247c0-2 0.814-4 2.443-6s3.747-3 6.353-3h72.327c2.606 0 4.724 1 6.353 3s2.443 4 2.443 6zM933.874 879c4.561 0 8.634-1.667 12.217-5s5.376-7.333 5.376-12v-184c0-4.667-1.792-8.833-5.376-12.5s-7.656-5.5-12.217-5.5h-852.281c-4.561 0-8.634 1.833-12.217 5.5s-5.376 7.833-5.376 12.5v184c0 4.667 1.792 8.667 5.376 12s7.656 5 12.217 5h91.874v-43c0-23.333 7.33-45 21.991-65s40.236-30 76.725-30c35.838 0 61.087 10 75.747 30s21.991 41.667 21.991 65v43h277.578v-43c0-23.333 7.167-45 21.502-65s39.747-30 76.236-30c35.838 0 61.087 10 75.747 30s21.991 41.667 21.991 65v43h90.897zM272.183 799c-14.987 0-25.575 2.833-31.765 8.5s-9.285 15.167-9.285 28.5v87c0 13.333 3.095 22.833 9.285 28.5s16.778 8.5 31.765 8.5c14.335 0 24.598-2.833 30.788-8.5s9.285-15.167 9.285-28.5v-87c0-13.333-3.095-22.833-9.285-28.5s-16.453-8.5-30.788-8.5zM745.238 799c-14.987 0-25.575 2.833-31.765 8.5s-9.285 15.167-9.285 28.5v87c0 13.333 3.095 22.833 9.285 28.5s16.778 8.5 31.765 8.5c14.335 0 24.76-2.833 31.276-8.5s9.774-15.167 9.774-28.5v-87c0-13.333-3.258-22.833-9.774-28.5s-16.941-8.5-31.276-8.5z" />
<glyph unicode="&#xe909;" glyph-name="check" d="M1009.838 750.298c4.357-4.357 7.807-9.441 10.349-15.251s3.813-11.983 3.813-18.519c0-6.536-1.271-12.709-3.813-18.519s-5.991-10.894-10.349-15.251l-570.826-570.826c-8.715-7.989-18.882-14.525-30.502-19.609s-23.966-7.626-37.038-7.626c-13.072 0-25.418 2.542-37.038 7.626s-21.787 11.62-30.502 19.609l-289.77 287.591c-4.357 4.357-7.807 9.441-10.349 15.251s-3.813 11.983-3.813 18.519c0 6.536 1.271 12.709 3.813 18.519s5.991 10.894 10.349 15.251l68.63 68.63c4.357 4.357 9.441 7.807 15.251 10.349s11.983 3.813 18.519 3.813c6.536 0 12.709-1.271 18.519-3.813s10.894-5.991 15.251-10.349l221.14-221.14 502.196 503.285c4.357 4.357 9.441 7.807 15.251 10.349s11.983 3.813 18.519 3.813c6.536 0 12.709-1.271 18.519-3.813s10.894-5.991 15.251-10.349l68.63-67.54z" />
<glyph unicode="&#xe90a;" glyph-name="chevron-down" d="M1003.616 696.056c3.198-3.198 5.995-6.795 8.393-10.792s4.397-7.994 5.995-11.991c1.599-3.997 2.998-8.393 4.197-13.19s1.799-9.592 1.799-14.389v-2.398c0-4.796-0.6-9.592-1.799-14.389s-2.598-9.193-4.197-13.19c-1.599-4.796-3.797-8.993-6.595-12.59s-5.396-6.995-7.794-10.192l-440.056-440.056c-3.198-3.198-6.795-5.995-10.792-8.393s-7.994-4.397-11.991-5.995c-3.997-2.398-8.593-3.997-13.789-4.796s-10.192-1.199-14.988-1.199c-5.596 0-10.792 0.4-15.588 1.199s-9.193 2.398-13.19 4.796c-4.796 1.599-8.993 3.597-12.59 5.995s-7.394 5.196-11.391 8.393l-438.857 440.056c-2.398 3.198-4.996 6.595-7.794 10.192s-4.996 7.794-6.595 12.59c-1.599 3.997-2.998 8.393-4.197 13.19s-1.799 9.592-1.799 14.389v1.199c0 4.796 0.6 9.592 1.799 14.389s2.598 9.592 4.197 14.389c1.599 3.997 3.597 7.994 5.995 11.991s5.196 7.594 8.393 10.792l51.56 51.56c3.198 3.198 6.795 5.995 10.792 8.393s7.994 4.397 11.991 5.995c3.997 2.398 8.393 3.997 13.19 4.796s9.992 1.199 15.588 1.199c4.796 0 9.592-0.4 14.389-1.199s9.193-2.398 13.19-4.796c4.796-1.599 8.993-3.597 12.59-5.995s6.995-5.196 10.192-8.393l338.136-336.937 336.937 335.738c6.395 5.596 13.789 10.392 22.183 14.389s17.386 5.995 26.979 5.995h1.199c5.596 0 10.792-0.6 15.588-1.799s9.193-2.598 13.19-4.197c4.796-1.599 8.993-3.797 12.59-6.595s6.995-5.795 10.192-8.993l52.759-49.162z" />
<glyph unicode="&#xe90b;" glyph-name="social-facebook" d="M731.819 628.437h-162.048v106.24c0 39.936 26.453 49.237 45.099 49.237h114.347v175.488l-157.483 0.597c-174.848 0-214.613-130.859-214.613-214.613v-116.949h-101.12v-180.821h101.12v-511.616h212.651v511.616h143.488l18.56 180.821z" />
<glyph unicode="&#xe90c;" glyph-name="social-google" d="M326.427 488.301c-0.171-37.121 0-74.199 0.171-111.277 62.167-2.048 124.504-1.109 186.713-2.048-27.435-137.902-215.087-182.617-314.375-92.589-102.104 79.063-97.282 252.379 8.875 325.767 74.242 59.223 179.716 44.588 253.872-6.699 29.041 27.152 56.669 55.777 82.775 85.762-61.697 49.153-137.432 84.226-218.031 80.514-168.153 5.632-322.78-141.614-325.554-309.809-10.795-137.475 79.618-272.305 207.279-320.946 127.149-48.897 290.182-15.574 371.379 98.69 53.633 72.151 65.153 165.038 58.924 252.336-104.109 0.768-208.047 0.597-312.028 0.299zM924.755 498.114c-0.299 33.025-0.469 66.22-0.64 99.245h-98.733c-0.341-33.025-0.683-66.049-0.853-99.245-33.153-0.128-66.177-0.299-99.202-0.64v-98.733l99.245-0.981c0.299-33.025 0.299-66.049 0.64-99.074h98.904c0.171 33.025 0.341 66.049 0.64 99.245 33.195 0.299 66.22 0.469 99.245 0.811v98.733c-33.025 0.341-66.22 0.341-99.245 0.64z" />
<glyph unicode="&#xe90d;" glyph-name="social-houzz" d="M635.904-64h343.552v581.675l-687.701 197.163v245.163h-227.755v-1024h343.552v322.389h228.352z" />
<glyph unicode="&#xe90e;" glyph-name="social-instagram" d="M512 960c-139.051 0-156.501-0.597-211.115-3.072-54.485-2.475-91.733-11.136-124.245-23.808-34.172-12.851-65.128-33.004-90.709-59.051-26.047-25.581-46.199-56.538-59.051-90.709-12.672-32.555-21.333-69.76-23.808-124.245-2.475-54.613-3.072-72.064-3.072-211.115s0.597-156.501 3.072-211.115c2.475-54.485 11.136-91.733 23.808-124.245 13.099-33.707 30.592-62.251 59.051-90.709 25.582-26.046 56.538-46.198 90.709-59.051 32.555-12.672 69.76-21.333 124.245-23.808 54.613-2.475 72.064-3.072 211.115-3.072s156.501 0.597 211.115 3.072c54.485 2.475 91.733 11.136 124.245 23.808 34.171 12.853 65.127 33.005 90.709 59.051 26.046 25.582 46.198 56.538 59.051 90.709 12.672 32.555 21.333 69.76 23.808 124.245 2.475 54.613 3.072 72.064 3.072 211.115s-0.597 156.501-3.072 211.115c-2.475 54.485-11.136 91.733-23.808 124.245-12.853 34.171-33.005 65.127-59.051 90.709-25.581 26.047-56.538 46.199-90.709 59.051-32.555 12.672-69.76 21.333-124.245 23.808-54.613 2.475-72.064 3.072-211.115 3.072zM512 867.755c136.704 0 152.917-0.512 206.891-2.987 49.92-2.261 77.013-10.624 95.061-17.621 23.893-9.301 40.96-20.395 58.88-38.315s29.013-34.987 38.315-58.88c6.997-18.048 15.36-45.141 17.621-95.061 2.475-53.973 2.987-70.187 2.987-206.891s-0.512-152.917-2.987-206.891c-2.261-49.92-10.624-77.013-17.621-95.061-9.301-23.893-20.395-40.96-38.315-58.88s-34.987-29.013-58.88-38.315c-18.048-6.997-45.141-15.36-95.061-17.621-53.973-2.475-70.187-2.987-206.891-2.987s-152.917 0.512-206.891 2.987c-49.92 2.261-77.013 10.624-95.061 17.621-22.244 8.209-42.364 21.302-58.88 38.315-17.92 17.92-29.013 34.987-38.315 58.88-6.997 18.048-15.36 45.141-17.621 95.061-2.475 53.973-2.987 70.187-2.987 206.891s0.512 152.917 2.987 206.891c2.261 49.92 10.624 77.013 17.621 95.061 9.301 23.893 20.395 40.96 38.315 58.88s34.987 29.013 58.88 38.315c18.048 6.997 45.141 15.36 95.061 17.621 53.973 2.475 70.187 2.987 206.891 2.987zM511.829 277.205c-94.233 0-170.624 76.391-170.624 170.624s76.391 170.624 170.624 170.624c94.233 0 170.624-76.391 170.624-170.624s-76.391-170.624-170.624-170.624zM511.829 710.699c-93.907 0-180.68-50.099-227.633-131.424s-46.953-181.523 0-262.848c46.953-81.325 133.727-131.424 227.633-131.424 145.155 0 262.827 117.672 262.827 262.827s-117.672 262.827-262.827 262.827v0.043zM846.507 721.067c0-21.95-11.71-42.233-30.72-53.209s-42.43-10.975-61.44 0c-19.010 10.975-30.72 31.258-30.72 53.209 0 33.932 27.508 61.44 61.44 61.44s61.44-27.508 61.44-61.44z" />
<glyph unicode="&#xe90f;" glyph-name="social-linkedin" d="M362.752 621.168h202.795v-94.171h2.773c28.373 54.015 97.28 110.827 200.448 110.827 214.272 0 254.037-142.203 254.037-327.36v-376.597h-211.499v334.074c0 79.882-1.152 182.359-109.867 182.359-110.293 0-126.805-86.983-126.805-176.377v-340.1h-211.541v687.344h-0.341zM17.707 620.009h211.925v-684.009h-211.925v684.009zM124.075 960c67.826-0.094 122.786-55.266 122.88-123.353-0.094-68.087-55.054-123.258-122.88-123.353-32.597-0.023-63.865 12.966-86.914 36.104s-35.988 54.527-35.966 87.249c-0.023 32.722 12.916 64.111 35.966 87.249s54.318 36.127 86.914 36.104z" />
<glyph unicode="&#xe910;" glyph-name="social-pinterest" d="M548.391 960c-279.464 0-420.391-200.361-420.391-367.442 0-101.162 38.314-191.145 120.447-224.638 13.44-5.547 25.514-0.213 29.44 14.677 2.731 10.283 9.173 36.352 12.032 47.232 3.925 14.72 2.389 19.882-8.533 32.768-23.637 27.904-38.826 64.085-38.826 115.327 0 148.649 111.231 281.683 289.619 281.683 157.951 0 244.734-96.511 244.734-225.363 0-169.599-75.093-312.744-186.452-312.744-61.567 0-107.562 50.858-92.842 113.279 17.664 74.538 51.882 154.879 51.882 208.766 0 48.128-25.813 88.277-79.274 88.277-62.933 0-113.492-65.109-113.492-152.233 0-55.509 18.773-93.098 18.773-93.098l-75.647-320.509c-22.442-95.146-3.371-211.71-1.707-223.486 0.939-6.997 9.899-8.661 13.952-3.413 5.803 7.595 80.725 100.095 106.196 192.51 7.211 26.154 41.386 161.663 41.386 161.663 20.394-38.997 80.127-73.258 143.657-73.258 189.054 0 317.352 172.372 317.352 403.026 0 174.505-147.753 336.978-372.306 336.978z" />
<glyph unicode="&#xe911;" glyph-name="social-reddit" d="M1024 400.559c-0.071 65.126-52.848 117.903-117.973 117.973-28.928 0-56.192-10.496-77.739-29.44-77.995 49.92-182.059 81.365-296.875 84.779l70.187 240.256 172.501-32c0-1.451-0.299-2.773-0.213-4.181 2.091-41.045 37.163-72.747 78.208-70.656 41.101 2.137 72.712 37.146 70.656 78.251 15.309 27.584 11.548 61.826-9.383 85.43s-54.477 31.433-83.694 19.533c-29.217-11.9-47.747-40.94-46.23-72.451h-0.043l-207.829 38.613-82.773-282.752c-115.115-3.072-219.52-34.304-297.856-84.139-21.351 18.58-48.71 28.796-77.013 28.757-65.109-0.094-117.86-52.864-117.931-117.973 0-40.235 20.693-77.312 54.229-98.987-2.091-11.833-3.161-23.824-3.2-35.84 0-170.24 206.379-308.779 460.075-308.779 253.739 0 460.075 138.539 460.075 308.779 0 11.819-1.067 23.424-2.987 34.859 34.609 21.458 55.705 59.247 55.808 99.968zM292.48 320.345c-0.631 26.31 13.048 50.895 35.736 64.232s50.823 13.328 73.504-0.022c22.681-13.349 36.345-37.943 35.699-64.253-0.955-39.339-33.119-70.732-72.469-70.732s-71.515 31.393-72.469 70.732v0.043zM682.027 124.292c-2.176-2.261-54.187-55.168-171.733-55.168-118.187 0-165.419 53.632-167.381 55.893-6.692 7.741-5.842 19.441 1.899 26.133s19.441 5.842 26.133-1.899c1.067-1.152 40.533-43.093 139.349-43.093 100.523 0 144.597 43.435 145.067 43.861 7.249 6.494 18.283 6.286 25.282-0.477s7.584-17.784 1.342-25.251h0.043zM667.563 247.855c-26.31-0.646-50.903 13.018-64.253 35.699s-13.358 50.815-0.022 73.504c13.336 22.689 37.921 36.367 64.232 35.736 39.339-0.943 70.742-33.098 70.754-72.449s-31.372-71.524-70.711-72.49z" />
<glyph unicode="&#xe912;" glyph-name="social-telegram" d="M900.359 827.793c0.941 0.685 22.309 10.463 41.303-2.376 15.036-10.716 21.733-29.995 16.665-47.976-46.32-221.604-92.999-443.208-139.364-664.812-0.314-2.741-3.001-23.988-21.995-35.502-16.834-10.121-38.039-8.632-53.353 3.747l-204.051 155.397c-86.145-80.874-100.256-118.661-139.409-118.661-39.198 0-21.144 26.592-101.018 269.306l-214.399 65.887c-14.066 5.757-21.637 17.546-20.651 30.385 0.986 11.88 13.35 19.967 18.008 22.983 38.66 24.308 664.521 263.183 818.22 321.623h0.045z" />
<glyph unicode="&#xe913;" glyph-name="social-twitch" d="M717.714 72.533h-205.714l-102.857-136.533h-137.143v136.533h-240v712.277l68.571 175.189h891.429v-614.4l-274.286-273.067zM889.143 379.733v477.867h-720v-648.533h205.714v-136.533l137.143 136.533h205.714l171.429 170.667zM599.652 686.933h100.174v-273.067h-100.174v273.067zM399.304 686.933h100.174v-273.067h-100.174v273.067z" />
<glyph unicode="&#xe914;" glyph-name="social-twitter" d="M1024 765.274c-38.334-17.003-79.010-28.144-120.661-33.048 43.886 26.22 76.721 67.51 92.373 116.157-41.241-24.464-86.364-41.698-133.419-50.957-65.015 69.494-168.659 86.615-252.59 41.724s-127.173-140.573-105.384-233.187c-168.924 8.439-326.322 88.154-433.024 219.308-18.683-32.049-28.49-68.491-28.416-105.582 0-72.833 37.077-137.137 93.44-174.747-33.356 1.057-65.977 10.062-95.147 26.268v-2.644c0.040-99.949 70.515-186.040 168.533-205.876-30.962-8.384-63.427-9.609-94.933-3.582 27.519-85.534 106.384-144.135 196.267-145.836-74.411-58.378-166.309-90.039-260.907-89.89-16.939 0-33.707 1.023-50.133 2.985 96.054-61.713 207.859-94.474 322.048-94.367 386.432 0 597.76 319.944 597.76 597.416 0 9.083-0.213 18.166-0.597 27.163 41.135 29.697 76.624 66.508 104.789 108.695z" />
<glyph unicode="&#xe915;" glyph-name="social-vkontakte" d="M983.81 710.69h-166.148c-13.827-0.007-26.531-7.547-33.067-19.625 0 0-66.263-120.966-87.554-161.739-57.303-109.63-94.381-75.202-94.381-24.32v175.443c0 30.495-24.961 55.28-55.767 55.28h-124.931c-34.59 2.537-68.040-12.858-88.407-40.688 0 0 63.447 10.151 63.447-74.567 0-21.021 1.067-81.461 2.091-132.174 0.409-15.318-8.876-29.258-23.248-34.902s-30.769-1.789-41.053 9.651c-51.143 70.509-93.506 146.885-126.168 227.466-5.72 12.314-18.154 20.195-31.83 20.175h-151.001c-8.421 0.049-16.329-4.004-21.158-10.842s-5.963-15.591-3.035-23.417c45.825-124.688 243.291-516.43 468.704-516.43h94.893c9.943 0 19.478 3.918 26.505 10.892s10.969 16.43 10.957 26.286v56.761c-0.035 14.584 8.69 27.789 22.191 33.583s29.186 3.067 39.89-6.937l113.539-105.782c10.198-9.517 23.681-14.803 37.676-14.803h149.123c71.895 0 71.895 49.486 32.683 87.764-27.606 26.942-127.15 130.99-127.15 130.99-17.607 18.093-19.291 46.204-3.968 66.235 32.171 42 84.823 110.73 107.138 140.168 30.55 40.265 85.762 125.534 10.027 125.534z" />
<glyph unicode="&#xe916;" glyph-name="social-youtube" d="M1002.667 690.077c21.333-78.367 21.333-242.098 21.333-242.098s0-163.648-21.333-242.056c-11.905-43.386-46.409-77.276-90.581-88.969-79.787-20.954-400.085-20.954-400.085-20.954s-320.085 0-400.085 20.954c-44.172 11.693-78.676 45.583-90.581 88.969-21.333 78.367-21.333 242.056-21.333 242.056s0 163.69 21.333 242.098c11.905 43.386 46.409 77.276 90.581 88.969 80 20.954 400.085 20.954 400.085 20.954s320.256 0 400.085-20.954c44.172-11.693 78.676-45.583 90.581-88.969zM409.685 297.113l266.027 150.866-266.027 150.866v-301.732z" />
<glyph unicode="&#xe917;" glyph-name="close" d="M667.763 448l338.93-337.487c5.769-5.769 10.096-12.259 12.98-19.47s4.327-15.144 4.327-23.797c0-7.692-1.442-15.144-4.327-22.355s-7.211-13.701-12.98-19.47l-72.113-72.113c-5.769-5.769-12.259-10.096-19.47-12.98s-14.663-4.327-22.355-4.327c-8.654 0-16.586 1.442-23.797 4.327s-13.221 7.211-18.028 12.98l-338.93 338.93-338.93-338.93c-4.808-5.769-10.817-10.096-18.028-12.98s-15.144-4.327-23.797-4.327c-7.692 0-15.144 1.442-22.355 4.327s-13.701 7.211-19.47 12.98l-72.113 72.113c-5.769 5.769-10.096 12.259-12.98 19.47s-4.327 14.663-4.327 22.355c0 8.654 1.442 16.586 4.327 23.797s7.211 13.221 12.98 18.028l337.487 338.93-337.487 338.93c-5.769 4.808-10.096 10.817-12.98 18.028s-4.327 15.144-4.327 23.797c0 7.692 1.442 15.144 4.327 22.355s7.211 13.701 12.98 19.47l72.113 72.113c5.769 4.808 12.019 8.894 18.749 12.259s14.422 5.048 23.076 5.048c7.692 0 15.144-1.683 22.355-5.048s13.221-7.452 18.028-12.259l338.93-338.93 338.93 338.93c5.769 5.769 12.259 10.096 19.47 12.98s14.663 4.327 22.355 4.327c8.654 0 16.346-1.442 23.076-4.327s12.98-7.211 18.749-12.98l73.555-72.113c4.808-5.769 8.894-12.259 12.259-19.47s5.048-14.663 5.048-22.355c0-8.654-1.683-16.586-5.048-23.797s-7.452-13.221-12.259-18.028l-338.93-338.93z" />
<glyph unicode="&#xe918;" glyph-name="loader" d="M512 960c17.333 0 32-6 44-18s18-26.667 18-44v-152c0-17.333-6-32-18-44s-26.667-18-44-18c-17.333 0-32 6-44 18s-18 26.667-18 44v152c0 17.333 6 32 18 44s26.667 18 44 18zM512 212c17.333 0 32-6 44-18s18-26.667 18-44v-152c0-17.333-6-32-18-44s-26.667-18-44-18c-17.333 0-32 6-44 18s-18 26.667-18 44v152c0 17.333 6 32 18 44s26.667 18 44 18zM723 596c-17.333 0-32.167 6.167-44.5 18.5s-18.5 27.167-18.5 44.5c0 8 1.667 15.833 5 23.5s8 14.5 14 20.5l107 107c5.333 6 12 10.667 20 14s16.333 5 25 5c17.333 0 32-6 44-18s18-26.667 18-44c0-8.667-1.667-17-5-25s-8-14.667-14-20l-107-107c-6-6-12.667-10.667-20-14s-15.333-5-24-5zM301 300c17.333 0 32.167-6.167 44.5-18.5s18.5-27.167 18.5-44.5c0-8-1.667-15.833-5-23.5s-8-14.5-14-20.5l-107-107c-5.333-6-12-10.667-20-14s-16.333-5-25-5c-17.333 0-32 6-44 18s-18 26.667-18 44c0 8.667 1.667 17 5 25s8 14.667 14 20l107 107c6 6 12.667 10.667 20 14s15.333 5 24 5zM962 510c17.333 0 32-6 44-18s18-26.667 18-44c0-17.333-6-32-18-44s-26.667-18-44-18h-152c-17.333 0-32 6-44 18s-18 26.667-18 44c0 17.333 6 32 18 44s26.667 18 44 18h152zM276 448c0-17.333-6-32-18-44s-26.667-18-44-18h-152c-17.333 0-32 6-44 18s-18 26.667-18 44c0 17.333 6 32 18 44s26.667 18 44 18h152c17.333 0 32-6 44-18s18-26.667 18-44zM767 281l107-107c6-5.333 10.667-12 14-20s5-16.333 5-25c0-17.333-6-32-18-44s-26.667-18-44-18c-8.667 0-17 1.667-25 5s-14.667 8-20 14l-107 107c-6 6-10.833 12.833-14.5 20.5s-5.5 16.167-5.5 25.5c0 16.667 6.167 31.167 18.5 43.5s26.833 18.5 43.5 18.5c9.333 0 17.833-1.833 25.5-5.5s14.5-8.5 20.5-14.5zM238 810l107-107c6-6 10.833-12.833 14.5-20.5s5.5-16.167 5.5-25.5c0-16.667-6.167-31.167-18.5-43.5s-26.833-18.5-43.5-18.5c-9.333 0-17.833 1.833-25.5 5.5s-14.5 8.5-20.5 14.5l-107 107c-5.333 5.333-9.5 11.667-12.5 19s-4.5 15.333-4.5 24c0 17.333 6 32 18 44s26.667 18 44 18c8.667 0 16.667-1.5 24-4.5s13.667-7.167 19-12.5z" />
<glyph unicode="&#xe919;" glyph-name="social-500px" d="M325.868 573.529c4.667-0.549 9.334-1.098 13.727-1.922 35.689-6.589 63.966-25.257 84.006-55.181 15.374-22.786 22.512-48.043 20.864-75.221-2.471-43.376-21.962-77.143-57.926-101.302-18.119-12.079-38.16-18.668-59.573-20.041-30.198-1.922-57.926 5.491-82.634 23.335-28.277 20.315-46.121 48.043-51.612 82.359-6.589 40.905 4.392 77.143 32.395 107.891 20.315 22.237 45.847 35.14 75.496 39.258 3.020 0.549 6.040 0.824 9.060 1.098 5.216-0.275 10.707-0.275 16.197-0.275zM317.632 346.492c55.181 0 99.929 44.749 100.204 99.929s-44.749 100.204-99.929 100.204c-55.181 0-99.929-44.749-100.204-99.929 0-55.181 44.749-100.204 99.929-100.204zM600.948 573.529c4.667-0.549 9.334-1.098 13.727-1.922 29.1-5.216 53.259-18.943 73.025-40.631 18.119-20.315 28.826-43.925 31.571-71.103 3.294-33.767-5.216-64.515-26.080-91.419-20.041-25.806-46.121-41.729-78.241-47.219-27.453-4.942-53.808-1.373-78.79 11.53-36.787 18.943-60.122 49.141-68.084 89.772-7.687 39.532 1.922 75.221 28.002 106.243 18.943 22.786 43.65 36.787 72.751 42.552 5.491 1.098 10.981 1.647 16.472 2.471 5.216-0.275 10.432-0.275 15.648-0.275zM592.987 346.492c55.181 0 99.929 44.749 99.929 99.929s-44.749 100.204-99.929 100.204c-55.181 0-99.929-44.749-99.929-99.929-0.275-55.181 44.474-100.204 99.929-100.204zM1.922 382.73c3.294 6.040 9.060 7.412 14.825 8.51 5.491 1.373 7.412 0 9.609-5.216 9.609-21.688 25.257-35.689 48.866-40.356 33.493-6.863 68.084 17.021 74.123 50.514 7.138 38.983-20.041 70.554-53.259 76.045-14.276 2.471-27.453-1.098-39.807-7.961-10.158-5.491-18.943-12.903-25.806-22.237-1.922-2.745-4.667-4.118-7.961-3.843-3.569 0.549-7.138 1.098-10.432 2.196-3.020 0.824-4.667 3.294-4.942 6.589 0 0.824 0 1.647 0 2.196 0 35.964 0 71.653 0 107.616 0 1.373 0 3.020 0.275 4.392 0.824 5.765 5.216 9.609 10.981 9.609 42.003 0 84.006 0 126.010 0 4.118 0 6.589-1.647 7.138-5.765 0.549-4.667 0.275-9.334 0-14.001-0.275-3.294-2.196-4.392-5.491-4.667-0.824 0-1.922 0-2.745 0-35.964 0-72.202 0-108.165 0-1.098 0-2.196 0-3.569 0 0-22.237 0-44.474 0-67.26 0.824 0.549 1.373 1.098 2.196 1.373 50.239 36.513 120.519 12.628 138.364-46.945 15.099-51.063-18.119-104.596-70.554-113.107-42.827-7.138-84.281 17.021-99.106 57.926 0 0.275-0.275 0.549-0.549 0.824 0 1.647 0 2.471 0 3.569zM745.9 449.716c0 18.668-0.549 37.611 0 56.279 0.824 25.531 12.354 45.572 34.865 58.475 37.885 21.413 86.477-1.098 95.811-43.925 8.785-40.905-21.688-74.947-56.553-79.888-5.216-0.824-10.707-0.275-16.197 0-3.843 0.275-5.765 2.196-5.765 6.040s0.275 7.687 1.098 11.256c0.824 4.667 3.294 6.314 7.961 6.314 8.236 0 15.923 1.373 23.335 5.216 15.923 7.961 25.257 29.1 22.512 43.65-3.020 17.295-17.021 31.297-34.591 34.316-21.688 3.569-42.003-10.981-46.67-33.218-0.824-3.843-1.098-7.687-1.098-11.53 0-36.787 0-73.3 0-110.087 0-6.863-1.647-8.785-8.51-9.609-3.294-0.275-6.589-0.275-9.609 0.275-4.667 0.549-6.863 3.020-6.863 7.961 0.275 19.492 0.275 38.983 0.275 58.475 0 0 0 0 0 0zM956.74 522.466c3.294 3.294 6.589 6.863 9.883 10.158 11.805 11.805 23.335 23.335 35.14 35.14 4.392 4.392 7.687 4.667 12.628 0.824 2.196-1.647 4.118-3.843 5.765-6.040 3.020-4.118 2.471-7.138-1.098-10.707-14.55-14.55-29.1-29.1-43.376-43.376-0.549-0.549-1.373-1.098-3.020-2.196 1.647-1.098 2.745-1.922 3.843-2.745 14.276-14.001 28.277-28.277 42.278-42.278 4.118-4.118 4.392-7.138 0.824-11.53-1.647-2.196-3.843-4.392-6.314-6.314-4.118-3.020-7.687-2.471-11.256 1.098-14.55 14.55-28.826 28.826-43.376 43.376-0.549 0.549-1.098 1.373-1.922 2.471-2.745-2.745-4.942-5.216-7.412-7.687-12.354-12.354-24.982-24.982-37.336-37.336-4.942-4.942-8.51-4.942-13.727-0.549-1.922 1.647-3.569 3.569-4.942 5.765-2.745 4.118-2.471 6.863 1.098 10.432 14.55 14.55 28.826 28.826 43.376 43.376 0.549 0.549 1.373 1.098 2.745 2.196-3.569 3.294-6.589 6.040-9.609 9.060-12.079 12.079-24.159 24.433-36.238 36.513-3.843 3.843-4.118 6.863-0.824 10.981 1.922 2.471 3.843 4.392 6.314 6.314 4.392 3.294 7.687 3.020 11.53-0.824 14.55-14.55 29.1-29.375 43.65-43.925 0-1.098 0.549-1.373 1.373-2.196z" />
<glyph unicode="&#xe91a;" glyph-name="social-whatsapp" d="M516.162 960c-282.292 0-509.254-229.719-506.486-509.243 0-88.562 24.919-174.346 66.432-251.838l-71.946-262.919 268.432 69.189c74.724-41.514 157.784-60.865 240.811-60.865 279.524 0 506.432 229.665 506.432 509.189 0 135.611-52.551 262.93-146.649 357.027-94.097 96.865-224.184 149.459-357.027 149.459zM333.514 691.568h30.432c8.303-2.768 13.816-5.535 19.351-13.838 8.303-16.605 41.503-91.351 44.27-105.189 2.768-8.303 0.022-19.373-5.514-27.676-5.535-5.535-8.303-13.816-13.838-19.351-8.303-8.303-19.351-22.162-19.351-22.162-2.768-2.768-2.811-8.303-2.811-13.838 2.768-5.535 2.8-8.314 5.568-11.081l2.757-5.513c13.838-24.908 33.222-47.059 52.595-66.432 5.535-5.535 13.816-11.059 19.351-16.595 22.141-22.141 49.827-38.757 80.27-52.595l13.838-5.514c2.768-2.768 8.314-5.568 11.081-5.568h2.757c5.535 0 11.070 2.789 13.838 8.324 38.746 44.281 41.514 47.027 41.514 47.027 5.535 2.768 11.049 5.568 19.351 5.568 2.768 0 5.557-2.811 8.324-2.811 27.676-13.838 71.946-33.189 71.946-33.189l30.432-13.838c5.535-2.768 8.324-5.514 8.324-5.514v-19.405c-2.768-13.838-5.546-27.686-11.081-38.757-2.768-5.535-8.303-11.059-13.838-16.595s-11.059-8.303-16.595-13.838l-5.514-5.513c-5.535-5.535-11.103-5.546-19.405-11.081-11.070-5.535-27.676-11.081-41.514-11.081h-27.676c-8.303 2.768-19.373 2.8-27.676 5.568-74.724 19.373-141.124 55.319-199.243 105.135-5.535 8.303-13.859 13.859-22.162 22.162l-11.081 11.081c-44.281 41.514-77.47 88.551-102.378 141.135l-2.757 8.27c-8.303 19.373-13.838 41.535-13.838 63.676 0 30.443 11.059 60.876 30.432 85.784 5.535 5.535 8.303 11.059 13.838 16.595 5.535 2.768 11.059 8.313 16.595 11.081l2.757 2.757c5.535 0 11.113 2.811 16.649 2.811z" />
</font>
</defs>
</svg>
